<svg xmlns="http://www.w3.org/2000/svg" xmlns:svg="http://www.w3.org/2000/svg" id="Capa_1" x="0" y="0" version="1.1" viewBox="0 0 512.008 512.008" xml:space="preserve" style="enable-background:new 0 0 512.008 512.008"><metadata id="metadata61"/><g id="g6" style="fill:#7b7b7b;fill-opacity:1"><g id="g4" style="fill:#7b7b7b;fill-opacity:1"><path id="path2" d="M86.688,330.76c-5.632-2.624-12.352-1.664-17.088,2.368l-64,54.72c-3.552,3.04-5.6,7.488-5.6,12.16v96 c0,8.832,7.168,16,16,16h64c8.832,0,16-7.168,16-16v-150.72C96,339.048,92.352,333.352,86.688,330.76z M64,480.008H32v-72.64 l32-27.36V480.008z" style="fill:#7b7b7b;fill-opacity:1"/></g></g><g id="g12" style="fill:#7b7b7b;fill-opacity:1"><g id="g10" style="fill:#7b7b7b;fill-opacity:1"><path id="path8" d="M342.688,111.24c-5.664-2.624-12.32-1.664-17.088,2.368l-64,54.72c-3.552,3.04-5.6,7.488-5.6,12.16v1.28 c0,13.76,20,19.552,28.192,9.344L320,160.52v85.248c0,8.864,7.168,16,16,16c8.832,0,16-7.168,16-16v-120 C352,119.528,348.352,113.832,342.688,111.24z" style="fill:#7b7b7b;fill-opacity:1"/></g></g><g id="g18" style="fill:#7b7b7b;fill-opacity:1"><g id="g16" style="fill:#7b7b7b;fill-opacity:1"><path id="path14" d="M470.688,1.48c-5.632-2.592-12.352-1.664-17.088,2.368l-64,54.72c-3.552,3.04-5.6,7.488-5.6,12.16v239.04 c0,8.832,7.168,16,16,16c8.832,0,16-7.136,16-16V78.088l32-27.36v323.04c0,8.864,7.168,16,16,16c8.832,0,16-7.168,16-16V16.008 C480,9.768,476.352,4.072,470.688,1.48z" style="fill:#7b7b7b;fill-opacity:1"/></g></g><g id="g24" style="fill:#7b7b7b;fill-opacity:1"><g id="g22" style="fill:#7b7b7b;fill-opacity:1"><path id="path20" d="M507.328,484.712l-32-32l-0.032-0.032l-63.968-63.968l-0.032-0.032l-63.968-63.968l-0.032-0.032l-63.968-63.968 l-0.032-0.032L27.328,4.68c-6.24-6.24-16.384-6.24-22.624,0s-6.24,16.384,0,22.624l194.944,194.944 c-0.672,0.416-1.44,0.608-2.048,1.12l-64,54.72c-1.792,1.536-3.2,3.424-4.16,5.504c-0.928,2.112-1.44,4.384-1.44,6.656v205.76 c0,8.832,7.168,16,16,16h64c8.832,0,16-7.168,16-16V246.632l32,32v217.376c0,8.832,7.168,16,16,16h64c8.832,0,16-7.168,16-16 V374.632l32,32v89.376c0,8.832,7.168,16,16,16h64c6.88,0,12.64-4.384,14.88-10.496l5.792,5.792 c3.136,3.136,7.232,4.704,11.328,4.704s8.192-1.568,11.328-4.672C513.568,501.096,513.568,490.952,507.328,484.712z M192,480.008 h-32v-182.4l32-27.36V480.008z M320,480.008h-32V310.632l32,32V480.008z M448,480.008h-32v-41.376l32,32V480.008z" style="fill:#7b7b7b;fill-opacity:1"/></g></g></svg>