<svg xmlns="http://www.w3.org/2000/svg" xmlns:svg="http://www.w3.org/2000/svg" id="Capa_1" x="0" y="0" version="1.1" viewBox="0 0 511.981 511.981" xml:space="preserve" style="enable-background:new 0 0 511.981 511.981"><metadata id="metadata61"/><g id="g6" style="fill:#7b7b7b;fill-opacity:1"><g id="g4" style="fill:#7b7b7b;fill-opacity:1"><path id="path2" d="M102.678,330.733c-5.664-2.624-12.32-1.664-17.088,2.368l-64,54.72c-3.552,3.04-5.6,7.488-5.6,12.16v96 c0,8.832,7.168,16,16,16h64c8.832,0,16-7.168,16-16v-150.72C111.99,339.021,108.342,333.325,102.678,330.733z M79.99,479.981h-32 v-72.64l32-27.36V479.981z" style="fill:#7b7b7b;fill-opacity:1"/></g></g><g id="g12" style="fill:#7b7b7b;fill-opacity:1"><g id="g10" style="fill:#7b7b7b;fill-opacity:1"><path id="path8" d="M237.75,227.853c-0.288-0.544-0.512-0.992-0.864-1.504c-0.288-0.384-0.416-0.864-0.736-1.248 c-1.504-1.76-3.36-3.072-5.344-4c-0.032-0.032-0.064-0.096-0.128-0.128c-0.192-0.096-0.448,0-0.64-0.096 c-2.304-0.96-4.736-1.248-7.2-1.056c-0.64,0.032-1.216,0.096-1.856,0.224c-2.624,0.512-5.184,1.44-7.392,3.296l-64,54.72 c-1.792,1.536-3.2,3.424-4.16,5.504c-0.928,2.112-1.44,4.384-1.44,6.656v205.76c0,8.832,7.168,16,16,16h64c8.832,0,16-7.168,16-16 v-260.48C239.99,232.845,239.094,230.253,237.75,227.853z M207.99,479.981h-32v-182.4l32-27.36V479.981z" style="fill:#7b7b7b;fill-opacity:1"/></g></g><g id="g18"><g id="g16"><path id="path14" d="M358.678,111.213c-5.632-2.624-12.288-1.664-17.088,2.368l-64,54.72c-3.552,3.04-5.6,7.488-5.6,12.16v315.52 c0,8.832,7.168,16,16,16h64c8.832,0,16-7.168,16-16v-370.24C367.99,119.501,364.342,113.805,358.678,111.213z M335.99,479.981h-32 V187.853l32-27.36V479.981z" style="fill:#7b7b7b;fill-opacity:1"/></g></g><g id="g24" style="fill:#7b7b7b;fill-opacity:1"><g id="g22" style="fill:#7b7b7b;fill-opacity:1"><path id="path20" d="M486.678,1.453c-5.664-2.592-12.32-1.664-17.088,2.368l-64,54.72c-3.552,3.04-5.6,7.488-5.6,12.16v425.28 c0,8.832,7.168,16,16,16h64c8.832,0,16-7.168,16-16v-480C495.99,9.741,492.342,4.045,486.678,1.453z M463.99,479.981h-32V78.061 l32-27.36V479.981z" style="fill:#7b7b7b;fill-opacity:1"/></g></g></svg>