<svg xmlns="http://www.w3.org/2000/svg" xmlns:xlink="http://www.w3.org/1999/xlink" width="36" height="36" version="1.1" viewBox="0 0 36 36"><title>loader01 2</title><desc>Created with Sketch.</desc><g id="Page-1" fill="none" fill-rule="evenodd" stroke="none" stroke-width="1"><g id="Group-3" fill="#4990E2"><rect id="Rectangle-1" width="3" height="9.137" x="16.587" y="0"/><rect id="Rectangle-2" width="3" height="9.137" x="16.678" y="26.863" fill-opacity=".58"/><rect id="Rectangle-4" width="3" height="9.137" x="30.03" y="13.386" fill-opacity=".79" transform="translate(31.530380, 17.954315) rotate(-270.000000) translate(-31.530380, -17.954315)"/><rect id="Rectangle-3" width="3" height="9.137" x="3.235" y="13.477" fill-opacity=".37" transform="translate(4.735443, 18.045685) rotate(-270.000000) translate(-4.735443, -18.045685)"/><rect id="Rectangle-4" width="3" height="9.137" x="28.258" y="20.108" fill-opacity=".72" transform="translate(29.758244, 24.676171) rotate(-240.000000) translate(-29.758244, -24.676171)"/><rect id="Rectangle-3" width="3" height="9.137" x="5.008" y="6.755" fill-opacity=".3" transform="translate(6.507579, 11.323829) rotate(-240.000000) translate(-6.507579, -11.323829)"/><rect id="Rectangle-4" width="3" height="9.137" x="23.371" y="25.041" fill-opacity=".65" transform="translate(24.871110, 29.609153) rotate(-210.000000) translate(-24.871110, -29.609153)"/><rect id="Rectangle-3" width="3" height="9.137" x="9.895" y="1.822" fill-opacity=".23" transform="translate(11.394713, 6.390847) rotate(-210.000000) translate(-11.394713, -6.390847)"/><rect id="Rectangle-4" width="3" height="9.137" x="9.974" y="25.086" fill-opacity=".51" transform="translate(11.473642, 29.654839) rotate(-150.000000) translate(-11.473642, -29.654839)"/><rect id="Rectangle-3" width="3" height="9.137" x="23.292" y="1.777" fill-opacity=".93" transform="translate(24.792181, 6.345161) rotate(-150.000000) translate(-24.792181, -6.345161)"/><rect id="Rectangle-4" width="3" height="9.137" x="5.053" y="20.187" fill-opacity=".44" transform="translate(6.553148, 24.755301) rotate(-120.000000) translate(-6.553148, -24.755301)"/><rect id="Rectangle-3" width="3" height="9.137" x="28.213" y="6.676" fill-opacity=".86" transform="translate(29.712675, 11.244699) rotate(-120.000000) translate(-29.712675, -11.244699)"/></g><animateTransform attributeName="transform" begin="0s" dur="0.85s" from="0 18 18" repeatCount="indefinite" to="360 18 18" type="rotate"/></g></svg>