<svg xmlns="http://www.w3.org/2000/svg" xmlns:xlink="http://www.w3.org/1999/xlink" id="Capa_1" x="0" y="0" version="1.1" viewBox="0 0 54 54" xml:space="preserve" style="enable-background:new 0 0 54 54"><g><g><path style="fill:#c0dced" d="M27,53L27,53C12.641,53,1,41.359,1,27v0C1,12.641,12.641,1,27,1h0c14.359,0,26,11.641,26,26v0 C53,41.359,41.359,53,27,53z"/><path style="fill:#c0dced" d="M27,54C12.112,54,0,41.888,0,27S12.112,0,27,0s27,12.112,27,27S41.888,54,27,54z M27,2 C13.215,2,2,13.215,2,27s11.215,25,25,25s25-11.215,25-25S40.785,2,27,2z"/></g><path style="fill:#fff" d="M27,40c-0.256,0-0.512-0.098-0.707-0.293c-0.391-0.391-0.391-1.023,0-1.414L37.586,27L26.293,15.707 c-0.391-0.391-0.391-1.023,0-1.414s1.023-0.391,1.414,0l11.498,11.498c0.667,0.667,0.667,1.751,0,2.418L27.707,39.707 C27.512,39.902,27.256,40,27,40z"/><path style="fill:#fff" d="M17,40c-0.256,0-0.512-0.098-0.707-0.293c-0.391-0.391-0.391-1.023,0-1.414L27.586,27L16.293,15.707 c-0.391-0.391-0.391-1.023,0-1.414s1.023-0.391,1.414,0l11.498,11.498c0.667,0.667,0.667,1.751,0,2.418L17.707,39.707 C17.512,39.902,17.256,40,17,40z"/></g></svg>